<svg width="38" height="24" viewBox="0 0 38 24" fill="none" xmlns="http://www.w3.org/2000/svg">
<g clip-path="url(#clip0_22_82)">
<path opacity="0.07" d="M35 0H3C1.3 0 0 1.3 0 3V21C0 22.7 1.4 24 3 24H35C36.7 24 38 22.7 38 21V3C38 1.3 36.6 0 35 0Z" fill="black"/>
<path d="M35 1C36.1 1 37 1.9 37 3V21C37 22.1 36.1 23 35 23H3C1.9 23 1 22.1 1 21V3C1 1.9 1.9 1 3 1H35Z" fill="white"/>
<path d="M25.26 16.23C23.563 17.71 21.103 18.5 18.985 18.5C16.015 18.5 13.341 17.2 11.319 15.037C11.159 14.867 11.301 14.635 11.492 14.767C13.675 16.271 16.374 17.175 19.162 17.175C21.042 17.175 23.112 16.715 25.012 15.759C25.3 15.614 25.542 15.981 25.26 16.229V16.23ZM25.966 15.273C25.75 14.945 24.532 15.118 23.986 15.195C23.819 15.219 23.793 15.047 23.943 14.925C24.913 14.115 26.505 14.349 26.691 14.62C26.878 14.892 26.644 16.78 25.731 17.683C25.591 17.821 25.459 17.747 25.521 17.563C25.726 16.959 26.185 15.603 25.967 15.273H25.966Z" fill="#FF9900"/>
<path d="M21.814 15.291C21.24 14.793 21.138 14.561 20.821 14.086C19.874 15.098 19.203 15.401 17.971 15.401C16.518 15.401 15.384 14.463 15.384 12.583C15.384 11.116 16.146 10.116 17.228 9.628C18.168 9.195 19.478 9.118 20.478 9V8.765C20.478 8.335 20.511 7.825 20.27 7.455C20.058 7.122 19.654 6.985 19.3 6.985C18.64 6.985 18.05 7.338 17.908 8.07C17.878 8.233 17.764 8.393 17.608 8.4L15.931 8.213C15.791 8.18 15.635 8.06 15.674 7.833C16.06 5.708 17.897 5.067 19.541 5.067C20.381 5.067 21.481 5.301 22.145 5.967C22.987 6.787 22.907 7.885 22.907 9.077V11.895C22.907 12.742 23.242 13.115 23.557 13.571C23.67 13.735 23.695 13.931 23.554 14.053C23.201 14.361 22.574 14.933 22.228 15.253C22.1709 15.3005 22.1008 15.3295 22.0269 15.3363C21.953 15.3431 21.8788 15.3273 21.814 15.291V15.291ZM20.155 12.758C20.495 12.132 20.478 11.544 20.478 10.84V10.448C19.228 10.448 17.908 10.728 17.908 12.268C17.908 13.05 18.294 13.578 18.958 13.578C19.445 13.578 19.88 13.266 20.155 12.758V12.758Z" fill="#221F1F"/>
</g>
<defs>
<clipPath id="clip0_22_82">
<rect width="38" height="24" fill="white"/>
</clipPath>
</defs>
</svg>
