<svg width="24" height="24" viewBox="0 0 24 24" fill="none" xmlns="http://www.w3.org/2000/svg">
<g clip-path="url(#clip0_4_39)">
<path d="M8.88667 21.3333C9.7151 21.3333 10.3867 20.6618 10.3867 19.8333C10.3867 19.0049 9.7151 18.3333 8.88667 18.3333C8.05825 18.3333 7.38667 19.0049 7.38667 19.8333C7.38667 20.6618 8.05825 21.3333 8.88667 21.3333Z" fill="black"/>
<path d="M18 21.3333C18.8284 21.3333 19.5 20.6618 19.5 19.8333C19.5 19.0049 18.8284 18.3333 18 18.3333C17.1716 18.3333 16.5 19.0049 16.5 19.8333C16.5 20.6618 17.1716 21.3333 18 21.3333Z" fill="black"/>
<path d="M22.0533 3.58C21.9913 3.50353 21.9131 3.44174 21.8243 3.39909C21.7356 3.35644 21.6385 3.33399 21.54 3.33333H7.66L8.09333 4.66667H20.6667L18.8867 12.6667H8.88666L5.84 3.02C5.80704 2.91764 5.74982 2.82477 5.6732 2.74931C5.59658 2.67386 5.50285 2.61806 5.4 2.58667L2.66666 1.74667C2.58262 1.72084 2.49431 1.71182 2.40678 1.72012C2.31924 1.72843 2.2342 1.75389 2.15651 1.79506C1.99961 1.8782 1.88216 2.02026 1.83 2.19C1.77784 2.35974 1.79524 2.54325 1.87838 2.70015C1.96153 2.85706 2.10359 2.97451 2.27333 3.02667L4.66666 3.76L7.72666 13.4267L6.63333 14.32L6.54666 14.4067C6.27622 14.7183 6.12293 15.1145 6.1132 15.5271C6.10346 15.9396 6.23789 16.3426 6.49333 16.6667C6.67504 16.8876 6.90594 17.063 7.16756 17.1788C7.42918 17.2945 7.71426 17.3475 8 17.3333H19.1267C19.3035 17.3333 19.473 17.2631 19.5981 17.1381C19.7231 17.013 19.7933 16.8435 19.7933 16.6667C19.7933 16.4899 19.7231 16.3203 19.5981 16.1953C19.473 16.0702 19.3035 16 19.1267 16H7.89333C7.81656 15.9974 7.74177 15.975 7.67617 15.935C7.61057 15.8951 7.55639 15.8389 7.51886 15.7718C7.48133 15.7048 7.46172 15.6293 7.46191 15.5524C7.46211 15.4756 7.48212 15.4002 7.52 15.3333L9.12666 14H19.42C19.5741 14.0038 19.7248 13.954 19.8463 13.8592C19.9679 13.7644 20.0528 13.6304 20.0867 13.48L22.2 4.14667C22.2203 4.04728 22.2176 3.94458 22.1922 3.84638C22.1668 3.74818 22.1193 3.65707 22.0533 3.58V3.58Z" fill="black"/>
</g>
<defs>
<clipPath id="clip0_4_39">
<rect width="24" height="24" fill="white"/>
</clipPath>
</defs>
</svg>
