<svg width="36" height="36" viewBox="0 0 36 36" fill="none" xmlns="http://www.w3.org/2000/svg">
<g clip-path="url(#clip0_20_17)">
<path d="M27.73 35.44C27.3937 35.4391 27.0585 35.4022 26.73 35.33C20.4766 34.0364 14.7156 31.0034 10.11 26.58C5.60267 22.1469 2.47659 16.5026 1.11 10.33C0.948861 9.56072 0.98841 8.7629 1.22484 8.01332C1.46128 7.26374 1.88664 6.58762 2.46 6.05001L6.46 2.20001C6.66431 2.00679 6.90706 1.85884 7.17242 1.76579C7.43777 1.67274 7.71977 1.6367 8 1.66001C8.29056 1.69032 8.57096 1.78392 8.82147 1.93422C9.07198 2.08453 9.28652 2.28789 9.45 2.53001L14.45 9.92001C14.6375 10.2067 14.728 10.5461 14.7082 10.8881C14.6884 11.2302 14.5593 11.5568 14.34 11.82L11.83 14.82C12.8296 17.0325 14.2453 19.0321 16 20.71C17.7433 22.4488 19.8038 23.8372 22.07 24.8L25.18 22.33C25.4412 22.1236 25.7591 22.0015 26.0913 21.9801C26.4235 21.9587 26.7544 22.0388 27.04 22.21L34.59 27.09C34.8491 27.2447 35.0698 27.456 35.2356 27.7081C35.4015 27.9603 35.5081 28.2466 35.5475 28.5458C35.587 28.845 35.5582 29.1492 35.4634 29.4357C35.3686 29.7221 35.2101 29.9834 35 30.2L31.1 34.06C30.657 34.5008 30.1312 34.8497 29.5528 35.0865C28.9745 35.3234 28.355 35.4435 27.73 35.44V35.44ZM7.84 3.64001L3.84 7.49001C3.51745 7.79056 3.27869 8.16989 3.14718 8.59069C3.01568 9.01149 2.99598 9.45928 3.09 9.89001C4.36072 15.6821 7.28172 20.9823 11.5 25.15C15.8342 29.3116 21.2556 32.1644 27.14 33.38C27.5854 33.4731 28.047 33.4543 28.4833 33.3251C28.9196 33.196 29.317 32.9606 29.64 32.64L33.54 28.78L26.25 24.07L22.91 26.73C22.7821 26.8312 22.6315 26.8996 22.4711 26.9292C22.3108 26.9589 22.1456 26.9488 21.99 26.9C19.2167 25.8782 16.7035 24.2562 14.63 22.15C12.4854 20.1472 10.8206 17.686 9.76 14.95C9.71513 14.7844 9.71364 14.61 9.75567 14.4436C9.7977 14.2772 9.88184 14.1245 10 14L12.7 10.77L7.84 3.64001Z" fill="black"/>
</g>
<defs>
<clipPath id="clip0_20_17">
<rect width="36" height="36" fill="white"/>
</clipPath>
</defs>
</svg>
