<svg width="38" height="24" viewBox="0 0 38 24" fill="none" xmlns="http://www.w3.org/2000/svg">
<g clip-path="url(#clip0_22_67)">
<path opacity="0.07" d="M35 0H3C1.3 0 0 1.3 0 3V21C0 22.7 1.4 24 3 24H35C36.7 24 38 22.7 38 21V3C38 1.3 36.6 0 35 0Z" fill="black"/>
<path d="M35 1C36.1 1 37 1.9 37 3V21C37 22.1 36.1 23 35 23H3C1.9 23 1 22.1 1 21V3C1 1.9 1.9 1 3 1H35Z" fill="white"/>
<path d="M3.57 7.15999H2V12.66H3.57C4.4 12.66 5 12.46 5.53 12.03C6.16 11.51 6.53 10.73 6.53 9.91999C6.52 8.28999 5.31 7.15999 3.57 7.15999V7.15999ZM4.83 11.3C4.49 11.6 4.06 11.74 3.36 11.74H3.07V8.09999H3.36C4.05 8.09999 4.47 8.21999 4.83 8.53999C5.2 8.86999 5.42 9.37999 5.42 9.90999C5.42 10.44 5.2 10.97 4.83 11.3ZM7.02 7.15999H8.09V12.66H7.02V7.15999V7.15999ZM10.71 9.26999C10.07 9.02999 9.88 8.86999 9.88 8.57999C9.88 8.22999 10.22 7.96999 10.68 7.96999C11 7.96999 11.27 8.09999 11.54 8.41999L12.1 7.68999C11.64 7.28999 11.09 7.07999 10.48 7.07999C9.51 7.07999 8.76 7.75999 8.76 8.65999C8.76 9.41999 9.11 9.80999 10.11 10.17C10.53 10.32 10.74 10.42 10.85 10.48C11.06 10.62 11.17 10.82 11.17 11.05C11.17 11.5 10.82 11.83 10.34 11.83C9.83 11.83 9.42 11.57 9.17 11.1L8.48 11.77C8.97 12.5 9.57 12.82 10.38 12.82C11.49 12.82 12.28 12.08 12.28 11.01C12.3 10.12 11.93 9.71999 10.71 9.26999V9.26999ZM12.63 9.91999C12.63 11.54 13.9 12.79 15.53 12.79C15.99 12.79 16.39 12.7 16.87 12.47V11.21C16.44 11.64 16.06 11.81 15.58 11.81C14.5 11.81 13.73 11.03 13.73 9.90999C13.73 8.84999 14.52 8.01999 15.53 8.01999C16.04 8.01999 16.43 8.19999 16.87 8.63999V7.37999C16.4 7.13999 16.01 7.03999 15.55 7.03999C13.94 7.03999 12.63 8.31999 12.63 9.91999V9.91999ZM25.39 10.86L23.92 7.15999H22.75L25.08 12.8H25.66L28.03 7.15999H26.87L25.39 10.86V10.86ZM28.52 12.66H31.56V11.73H29.59V10.25H31.49V9.31999H29.59V8.09999H31.56V7.15999H28.52V12.66V12.66ZM35.81 8.78999C35.81 7.75999 35.1 7.16999 33.86 7.16999H32.27V12.67H33.34V10.46H33.48L34.96 12.67H36.28L34.55 10.35C35.36 10.18 35.81 9.62999 35.81 8.78999V8.78999ZM33.65 9.69999H33.34V8.02999H33.67C34.34 8.02999 34.7 8.30999 34.7 8.84999C34.7 9.39999 34.34 9.69999 33.65 9.69999V9.69999Z" fill="#231F20"/>
<path d="M20.16 12.86C20.9374 12.86 21.6829 12.5512 22.2325 12.0015C22.7822 11.4519 23.091 10.7064 23.091 9.929C23.091 9.15165 22.7822 8.40614 22.2325 7.85647C21.6829 7.3068 20.9374 6.998 20.16 6.998C19.3827 6.998 18.6371 7.3068 18.0875 7.85647C17.5378 8.40614 17.229 9.15165 17.229 9.929C17.229 10.7064 17.5378 11.4519 18.0875 12.0015C18.6371 12.5512 19.3827 12.86 20.16 12.86Z" fill="url(#paint0_linear_22_67)"/>
<path opacity="0.65" d="M20.16 12.86C20.9374 12.86 21.6829 12.5512 22.2325 12.0015C22.7822 11.4519 23.091 10.7064 23.091 9.929C23.091 9.15165 22.7822 8.40614 22.2325 7.85647C21.6829 7.3068 20.9374 6.998 20.16 6.998C19.3827 6.998 18.6371 7.3068 18.0875 7.85647C17.5378 8.40614 17.229 9.15165 17.229 9.929C17.229 10.7064 17.5378 11.4519 18.0875 12.0015C18.6371 12.5512 19.3827 12.86 20.16 12.86Z" fill="url(#paint1_linear_22_67)"/>
<path d="M36.57 7.506C36.57 7.406 36.5 7.356 36.39 7.356H36.23V7.836H36.35V7.646L36.49 7.836H36.63L36.47 7.636C36.53 7.626 36.57 7.576 36.57 7.506V7.506ZM36.37 7.576H36.35V7.446H36.37C36.43 7.446 36.46 7.466 36.46 7.506C36.46 7.556 36.43 7.576 36.37 7.576Z" fill="#231F20"/>
<path d="M36.41 7.17599C36.18 7.17599 35.99 7.36599 35.99 7.59599C35.99 7.82599 36.18 8.01599 36.41 8.01599C36.64 8.01599 36.83 7.82599 36.83 7.59599C36.83 7.36599 36.64 7.17599 36.41 7.17599ZM36.41 7.94599C36.23 7.94599 36.07 7.79599 36.07 7.59599C36.07 7.40599 36.22 7.24599 36.41 7.24599C36.59 7.24599 36.74 7.40599 36.74 7.59599C36.74 7.78599 36.59 7.94599 36.41 7.94599Z" fill="#231F20"/>
<path d="M37 12.984C37 12.984 27.09 19.873 8.97601 23H34.999C35.5267 23 36.033 22.7915 36.4076 22.4199C36.7822 22.0483 36.9948 21.5436 36.999 21.016L37.023 17.996L37 12.985V12.984Z" fill="#F48120"/>
</g>
<defs>
<linearGradient id="paint0_linear_22_67" x1="21.657" y1="12.275" x2="19.632" y2="9.104" gradientUnits="userSpaceOnUse">
<stop stop-color="#F89F20"/>
<stop offset="0.25" stop-color="#F79A20"/>
<stop offset="0.533" stop-color="#F68D20"/>
<stop offset="0.62" stop-color="#F58720"/>
<stop offset="0.723" stop-color="#F48120"/>
<stop offset="1" stop-color="#F37521"/>
</linearGradient>
<linearGradient id="paint1_linear_22_67" x1="21.338" y1="12.232" x2="18.378" y2="6.446" gradientUnits="userSpaceOnUse">
<stop stop-color="#F58720"/>
<stop offset="0.359" stop-color="#E16F27"/>
<stop offset="0.703" stop-color="#D4602C"/>
<stop offset="0.982" stop-color="#D05B2E"/>
</linearGradient>
<clipPath id="clip0_22_67">
<rect width="38" height="24" fill="white"/>
</clipPath>
</defs>
</svg>
