<svg width="24" height="24" viewBox="0 0 24 24" fill="none" xmlns="http://www.w3.org/2000/svg">
<path d="M5.25 19.5H18.75C18.9374 19.4997 19.1182 19.5695 19.2567 19.6958C19.3952 19.822 19.4814 19.9956 19.4983 20.1822C19.5152 20.3689 19.4617 20.5551 19.3482 20.7042C19.2347 20.8534 19.0694 20.9546 18.885 20.988L18.75 21H5.25C5.06258 21.0003 4.88182 20.9305 4.74332 20.8042C4.60483 20.678 4.51862 20.5044 4.50169 20.3178C4.48475 20.1311 4.53832 19.9449 4.65183 19.7958C4.76534 19.6466 4.93058 19.5454 5.115 19.512L5.25 19.5H18.75H5.25ZM11.865 1.512L12 1.5C12.1755 1.49994 12.3455 1.56146 12.4804 1.67383C12.6152 1.78621 12.7064 1.94233 12.738 2.115L12.75 2.25V15.438L16.773 11.4165C16.8971 11.2923 17.0609 11.2155 17.2357 11.1996C17.4106 11.1837 17.5855 11.2297 17.73 11.3295L17.835 11.4165C17.959 11.5408 18.0355 11.7046 18.0511 11.8795C18.0667 12.0544 18.0205 12.2292 17.9205 12.3735L17.8335 12.477L12.531 17.781C12.4067 17.905 12.2429 17.9815 12.068 17.9971C11.8931 18.0127 11.7183 17.9665 11.574 17.8665L11.469 17.781L6.1665 12.477C6.03362 12.3447 5.95511 12.1675 5.94645 11.9802C5.93778 11.7929 5.99957 11.6091 6.11966 11.4651C6.23975 11.3211 6.40942 11.2273 6.59523 11.2022C6.78103 11.1771 6.96951 11.2225 7.1235 11.3295L7.227 11.4165L11.25 15.438V2.25C11.2499 2.07446 11.3115 1.90446 11.4238 1.76961C11.5362 1.63476 11.6923 1.5436 11.865 1.512L12 1.5L11.865 1.512Z" fill="black"/>
</svg>
