<svg width="22" height="22" viewBox="0 0 22 22" fill="none" xmlns="http://www.w3.org/2000/svg">
<g clip-path="url(#clip0_4_51)">
<path d="M11 0C16.8762 0 22 4.851 22 10.45C22 15.9544 16.9917 20.2862 11 20.2862C9.71848 20.2869 8.44497 20.0842 7.227 19.6856C6.7166 20.1806 6.5417 20.3489 5.4582 21.3939C4.6772 21.9835 3.9424 22.1837 3.2857 21.8119C2.6235 21.4379 2.4244 20.7097 2.5597 19.7505L2.9997 17.1996C1.089 15.4022 0 13.0262 0 10.45C0 4.851 5.1227 0 11 0ZM11 1.54C5.9554 1.54 1.54 5.72 1.54 10.45C1.54 12.6995 2.5432 14.7708 4.312 16.313L4.334 16.3317L4.6607 16.6155L4.587 17.0445L4.4352 17.9289L4.3945 18.1643L4.081 19.9881C4.06251 20.1109 4.05149 20.2347 4.048 20.3588V20.4633C4.048 20.4688 4.0458 20.4721 4.0458 20.4721C4.0535 20.4611 4.2031 20.4138 4.4594 20.2268L6.8464 17.9102L7.3018 18.0818C8.48477 18.5232 9.73737 18.7486 11 18.7473C16.1876 18.7473 20.46 15.0513 20.46 10.45C20.46 5.7211 16.0446 1.54 11 1.54ZM5.7497 8.5943C5.9713 8.5862 6.19227 8.62286 6.39939 8.70208C6.60651 8.7813 6.79553 8.90145 6.95517 9.05537C7.11481 9.20928 7.24179 9.39379 7.32851 9.59788C7.41524 9.80197 7.45994 10.0214 7.45994 10.2432C7.45994 10.465 7.41524 10.6844 7.32851 10.8885C7.24179 11.0926 7.11481 11.2771 6.95517 11.431C6.79553 11.5849 6.60651 11.7051 6.39939 11.7843C6.19227 11.8635 5.9713 11.9002 5.7497 11.8921C5.32281 11.8765 4.9186 11.696 4.62211 11.3884C4.32561 11.0809 4.15994 10.6704 4.15994 10.2432C4.15994 9.81602 4.32561 9.40549 4.62211 9.09797C4.9186 8.79045 5.32281 8.6099 5.7497 8.5943ZM11.2475 8.5943C11.4691 8.5862 11.6901 8.62286 11.8972 8.70208C12.1043 8.7813 12.2933 8.90145 12.453 9.05537C12.6126 9.20928 12.7396 9.39379 12.8263 9.59788C12.913 9.80197 12.9577 10.0214 12.9577 10.2432C12.9577 10.465 12.913 10.6844 12.8263 10.8885C12.7396 11.0926 12.6126 11.2771 12.453 11.431C12.2933 11.5849 12.1043 11.7051 11.8972 11.7843C11.6901 11.8635 11.4691 11.9002 11.2475 11.8921C10.8206 11.8765 10.4164 11.696 10.1199 11.3884C9.82341 11.0809 9.65774 10.6704 9.65774 10.2432C9.65774 9.81602 9.82341 9.40549 10.1199 9.09797C10.4164 8.79045 10.8206 8.6099 11.2475 8.5943ZM16.7442 8.5943C16.9658 8.5862 17.1868 8.62286 17.3939 8.70208C17.601 8.7813 17.79 8.90145 17.9497 9.05537C18.1093 9.20928 18.2363 9.39379 18.323 9.59788C18.4097 9.80197 18.4544 10.0214 18.4544 10.2432C18.4544 10.465 18.4097 10.6844 18.323 10.8885C18.2363 11.0926 18.1093 11.2771 17.9497 11.431C17.79 11.5849 17.601 11.7051 17.3939 11.7843C17.1868 11.8635 16.9658 11.9002 16.7442 11.8921C16.3173 11.8765 15.9131 11.696 15.6166 11.3884C15.3201 11.0809 15.1544 10.6704 15.1544 10.2432C15.1544 9.81602 15.3201 9.40549 15.6166 9.09797C15.9131 8.79045 16.3173 8.6099 16.7442 8.5943Z" fill="black"/>
</g>
<defs>
<clipPath id="clip0_4_51">
<rect width="22" height="22" fill="white"/>
</clipPath>
</defs>
</svg>
