<svg width="278" height="24" viewBox="0 0 278 24" fill="none" xmlns="http://www.w3.org/2000/svg">
<g clip-path="url(#clip0_23_87)">
<path opacity="0.07" d="M83 0H51C49.3 0 48 1.3 48 3V21C48 22.7 49.4 24 51 24H83C84.7 24 86 22.7 86 21V3C86 1.3 84.6 0 83 0Z" fill="black"/>
<path d="M83 1C84.1 1 85 1.9 85 3V21C85 22.1 84.1 23 83 23H51C49.9 23 49 22.1 49 21V3C49 1.9 49.9 1 51 1H83Z" fill="white"/>
<path d="M76.3 10.1H76C75.6 11.1 75.3 11.6 75 13.1H76.9C76.6 11.6 76.6 10.9 76.3 10.1V10.1ZM79.2 16H77.5C77.4 16 77.4 16 77.3 15.9L77.1 15L77 14.8H74.6C74.5 14.8 74.4 14.8 74.4 15L74.1 15.9C74.1 16 74 16 74 16H71.9L72.1 15.5L75 8.7C75 8.2 75.3 8 75.8 8H77.3C77.4 8 77.5 8 77.5 8.2L78.9 14.7C79 15.1 79.1 15.4 79.1 15.8C79.2 15.9 79.2 15.9 79.2 16V16ZM65.8 15.7L66.2 13.9C66.3 13.9 66.4 14 66.4 14C67.1 14.3 67.8 14.5 68.5 14.4C68.7 14.4 69 14.3 69.2 14.2C69.7 14 69.7 13.5 69.3 13.1C69.1 12.9 68.8 12.8 68.5 12.6C68.1 12.4 67.7 12.2 67.4 11.9C66.2 10.9 66.6 9.5 67.3 8.8C67.9 8.4 68.2 8 69 8C70.2 8 71.5 8 72.1 8.2H72.2C72.1 8.8 72 9.3 71.8 9.9C71.3 9.7 70.8 9.5 70.3 9.5C70 9.5 69.7 9.5 69.4 9.6C69.2 9.6 69.1 9.7 69 9.8C68.8 10 68.8 10.3 69 10.5L69.5 10.9C69.9 11.1 70.3 11.3 70.6 11.5C71.1 11.8 71.6 12.3 71.7 12.9C71.9 13.8 71.6 14.6 70.8 15.2C70.3 15.6 70.1 15.8 69.4 15.8C68 15.8 66.9 15.9 66 15.6C65.9 15.8 65.9 15.8 65.8 15.7V15.7ZM62.3 16C62.4 15.3 62.4 15.3 62.5 15C63 12.8 63.5 10.5 63.9 8.3C64 8.1 64 8 64.2 8H66C65.8 9.2 65.6 10.1 65.3 11.2C65 12.7 64.7 14.2 64.3 15.7C64.3 15.9 64.2 15.9 64 15.9M53 8.2C53 8.1 53.2 8 53.3 8H56.7C57.2 8 57.6 8.3 57.7 8.8L58.6 13.2C58.6 13.3 58.6 13.3 58.7 13.4C58.7 13.3 58.8 13.3 58.8 13.3L60.9 8.2C60.8 8.1 60.9 8 61 8H63.1C63.1 8.1 63.1 8.1 63 8.2L59.9 15.5C59.8 15.7 59.8 15.8 59.7 15.9C59.6 16 59.4 15.9 59.2 15.9H57.7C57.6 15.9 57.5 15.9 57.5 15.7L55.9 9.5C55.7 9.3 55.4 9 55 8.9C54.4 8.6 53.3 8.4 53.1 8.4L53 8.2Z" fill="#142688"/>
</g>
<g clip-path="url(#clip1_23_87)">
<path opacity="0.07" d="M35 0H3C1.3 0 0 1.3 0 3V21C0 22.7 1.4 24 3 24H35C36.7 24 38 22.7 38 21V3C38 1.3 36.6 0 35 0Z" fill="black"/>
<path d="M35 1C36.1 1 37 1.9 37 3V21C37 22.1 36.1 23 35 23H3C1.9 23 1 22.1 1 21V3C1 1.9 1.9 1 3 1H35Z" fill="white"/>
<path d="M15 19C18.866 19 22 15.866 22 12C22 8.13401 18.866 5 15 5C11.134 5 8 8.13401 8 12C8 15.866 11.134 19 15 19Z" fill="#EB001B"/>
<path d="M23 19C26.866 19 30 15.866 30 12C30 8.13401 26.866 5 23 5C19.134 5 16 8.13401 16 12C16 15.866 19.134 19 23 19Z" fill="#F79E1B"/>
<path d="M22 12C22 9.59999 20.8 7.49999 19 6.29999C17.2 7.59999 16 9.69999 16 12C16 14.3 17.2 16.5 19 17.7C20.8 16.5 22 14.4 22 12Z" fill="#FF5F00"/>
</g>
<g clip-path="url(#clip2_23_87)">
<path opacity="0.07" d="M131 0H99C97.3 0 96 1.3 96 3V21C96 22.7 97.4 24 99 24H131C132.7 24 134 22.7 134 21V3C134 1.3 132.6 0 131 0Z" fill="black"/>
<path d="M131 1C132.1 1 133 1.9 133 3V21C133 22.1 132.1 23 131 23H99C97.9 23 97 22.1 97 21V3C97 1.9 97.9 1 99 1H131Z" fill="#006FCF"/>
<path d="M104.971 10.268L105.745 12.144H104.203L104.971 10.268ZM121.046 10.346H118.069V11.173H120.998V12.412H118.075V13.334H121.052V14.073L123.129 11.828L121.052 9.488L121.046 10.346ZM106.983 8.006H110.978L111.865 9.941L112.687 8H123.057L124.135 9.19L125.25 8H130.013L126.494 11.852L129.977 15.68H125.143L124.065 14.49L122.94 15.68H106.03L105.536 14.49H104.406L103.911 15.68H100L103.286 8H106.716L106.983 8.006ZM115.646 9.084H113.407L111.907 12.62L110.282 9.084H108.06V13.894L106 9.084H104.007L101.625 14.596H103.18L103.674 13.406H106.27L106.764 14.596H109.484V10.661L111.235 14.602H112.425L114.165 10.673V14.603H115.623L115.647 9.083L115.646 9.084ZM124.986 11.852L127.517 9.084H125.695L124.094 10.81L122.546 9.084H116.652V14.602H122.462L124.076 12.864L125.624 14.602H127.499L124.987 11.852H124.986Z" fill="white"/>
</g>
<g clip-path="url(#clip3_23_87)">
<path opacity="0.07" d="M179 0H147C145.3 0 144 1.3 144 3V21C144 22.7 145.4 24 147 24H179C180.7 24 182 22.7 182 21V3C182 1.3 180.6 0 179 0Z" fill="black"/>
<path d="M179 1C180.1 1 181 1.9 181 3V21C181 22.1 180.1 23 179 23H147C145.9 23 145 22.1 145 21V3C145 1.9 145.9 1 147 1H179Z" fill="white"/>
<path d="M147.57 7.16001H146V12.66H147.57C148.4 12.66 149 12.46 149.53 12.03C150.16 11.51 150.53 10.73 150.53 9.92001C150.52 8.29001 149.31 7.16001 147.57 7.16001V7.16001ZM148.83 11.3C148.49 11.6 148.06 11.74 147.36 11.74H147.07V8.10001H147.36C148.05 8.10001 148.47 8.22001 148.83 8.54001C149.2 8.87001 149.42 9.38001 149.42 9.91001C149.42 10.44 149.2 10.97 148.83 11.3ZM151.02 7.16001H152.09V12.66H151.02V7.16001V7.16001ZM154.71 9.27001C154.07 9.03001 153.88 8.87001 153.88 8.58001C153.88 8.23001 154.22 7.97001 154.68 7.97001C155 7.97001 155.27 8.10001 155.54 8.42001L156.1 7.69001C155.64 7.29001 155.09 7.08001 154.48 7.08001C153.51 7.08001 152.76 7.76001 152.76 8.66001C152.76 9.42001 153.11 9.81001 154.11 10.17C154.53 10.32 154.74 10.42 154.85 10.48C155.06 10.62 155.17 10.82 155.17 11.05C155.17 11.5 154.82 11.83 154.34 11.83C153.83 11.83 153.42 11.57 153.17 11.1L152.48 11.77C152.97 12.5 153.57 12.82 154.38 12.82C155.49 12.82 156.28 12.08 156.28 11.01C156.3 10.12 155.93 9.72001 154.71 9.27001V9.27001ZM156.63 9.92001C156.63 11.54 157.9 12.79 159.53 12.79C159.99 12.79 160.39 12.7 160.87 12.47V11.21C160.44 11.64 160.06 11.81 159.58 11.81C158.5 11.81 157.73 11.03 157.73 9.91001C157.73 8.85001 158.52 8.02001 159.53 8.02001C160.04 8.02001 160.43 8.20001 160.87 8.64001V7.38001C160.4 7.14001 160.01 7.04001 159.55 7.04001C157.94 7.04001 156.63 8.32001 156.63 9.92001V9.92001ZM169.39 10.86L167.92 7.16001H166.75L169.08 12.8H169.66L172.03 7.16001H170.87L169.39 10.86V10.86ZM172.52 12.66H175.56V11.73H173.59V10.25H175.49V9.32001H173.59V8.10001H175.56V7.16001H172.52V12.66V12.66ZM179.81 8.79001C179.81 7.76001 179.1 7.17001 177.86 7.17001H176.27V12.67H177.34V10.46H177.48L178.96 12.67H180.28L178.55 10.35C179.36 10.18 179.81 9.63001 179.81 8.79001V8.79001ZM177.65 9.70001H177.34V8.03001H177.67C178.34 8.03001 178.7 8.31001 178.7 8.85001C178.7 9.40001 178.34 9.70001 177.65 9.70001V9.70001Z" fill="#231F20"/>
<path d="M164.16 12.86C164.937 12.86 165.683 12.5512 166.233 12.0015C166.782 11.4518 167.091 10.7063 167.091 9.92899C167.091 9.15164 166.782 8.40612 166.233 7.85646C165.683 7.30679 164.937 6.99799 164.16 6.99799C163.383 6.99799 162.637 7.30679 162.087 7.85646C161.538 8.40612 161.229 9.15164 161.229 9.92899C161.229 10.7063 161.538 11.4518 162.087 12.0015C162.637 12.5512 163.383 12.86 164.16 12.86Z" fill="url(#paint0_linear_23_87)"/>
<path opacity="0.65" d="M164.16 12.86C164.937 12.86 165.683 12.5512 166.233 12.0015C166.782 11.4518 167.091 10.7063 167.091 9.92899C167.091 9.15164 166.782 8.40612 166.233 7.85646C165.683 7.30679 164.937 6.99799 164.16 6.99799C163.383 6.99799 162.637 7.30679 162.087 7.85646C161.538 8.40612 161.229 9.15164 161.229 9.92899C161.229 10.7063 161.538 11.4518 162.087 12.0015C162.637 12.5512 163.383 12.86 164.16 12.86Z" fill="url(#paint1_linear_23_87)"/>
<path d="M180.57 7.50599C180.57 7.40599 180.5 7.35599 180.39 7.35599H180.23V7.83599H180.35V7.64599L180.49 7.83599H180.63L180.47 7.63599C180.53 7.62599 180.57 7.57599 180.57 7.50599V7.50599ZM180.37 7.57599H180.35V7.44599H180.37C180.43 7.44599 180.46 7.46599 180.46 7.50599C180.46 7.55599 180.43 7.57599 180.37 7.57599Z" fill="#231F20"/>
<path d="M180.41 7.17599C180.18 7.17599 179.99 7.36599 179.99 7.59599C179.99 7.82599 180.18 8.01599 180.41 8.01599C180.64 8.01599 180.83 7.82599 180.83 7.59599C180.83 7.36599 180.64 7.17599 180.41 7.17599ZM180.41 7.94599C180.23 7.94599 180.07 7.79599 180.07 7.59599C180.07 7.40599 180.22 7.24599 180.41 7.24599C180.59 7.24599 180.74 7.40599 180.74 7.59599C180.74 7.78599 180.59 7.94599 180.41 7.94599Z" fill="#231F20"/>
<path d="M181 12.984C181 12.984 171.09 19.873 152.976 23H178.999C179.527 23 180.033 22.7915 180.408 22.4199C180.782 22.0483 180.995 21.5437 180.999 21.016L181.023 17.996L181 12.985V12.984Z" fill="#F48120"/>
</g>
<g clip-path="url(#clip4_23_87)">
<path opacity="0.07" d="M227 0H195C193.3 0 192 1.3 192 3V21C192 22.7 193.4 24 195 24H227C228.7 24 230 22.7 230 21V3C230 1.3 228.6 0 227 0Z" fill="black"/>
<path d="M227 1C228.1 1 229 1.9 229 3V21C229 22.1 228.1 23 227 23H195C193.9 23 193 22.1 193 21V3C193 1.9 193.9 1 195 1H227Z" fill="white"/>
<path d="M215.9 8.3C216.1 7.3 215.9 6.6 215.3 6C214.7 5.3 213.6 5 212.2 5H208.1C207.8 5 207.6 5.2 207.5 5.5L206 15.6C206 15.8 206.1 16 206.3 16H209L209.4 12.6L211.2 10.4L215.9 8.3V8.3Z" fill="#003087"/>
<path d="M215.9 8.29999L215.7 8.49999C215.2 11.3 213.5 12.3 211.1 12.3H210C209.7 12.3 209.5 12.5 209.4 12.8L208.8 16.7L208.6 17.7C208.6 17.9 208.7 18.1 208.9 18.1H211C211.3 18.1 211.5 17.9 211.5 17.7V17.6L211.9 15.2V15.1C211.9 14.9 212.2 14.7 212.4 14.7H212.7C214.8 14.7 216.4 13.9 216.8 11.5C217 10.5 216.9 9.69999 216.4 9.09999C216.3 8.59999 216.1 8.39999 215.9 8.29999V8.29999Z" fill="#3086C8"/>
<path d="M215.3 8.09999C215.2 7.99999 215.1 7.99999 215 7.99999C214.9 7.99999 214.8 7.99999 214.7 7.89999C214.4 7.79999 214 7.79999 213.6 7.79999H210.6C210.5 7.79999 210.4 7.79999 210.4 7.89999C210.2 7.99999 210.1 8.09999 210.1 8.29999L209.4 12.7V12.8C209.4 12.5 209.7 12.3 210 12.3H211.3C213.8 12.3 215.4 11.3 215.9 8.49999V8.29999C215.8 8.19999 215.6 8.09999 215.4 8.09999H215.3V8.09999Z" fill="#012169"/>
</g>
<g clip-path="url(#clip5_23_87)">
<path opacity="0.07" d="M275 0H243C241.3 0 240 1.3 240 3V21C240 22.7 241.4 24 243 24H275C276.7 24 278 22.7 278 21V3C278 1.3 276.6 0 275 0Z" fill="black"/>
<path d="M275 1C276.1 1 277 1.9 277 3V21C277 22.1 276.1 23 275 23H243C241.9 23 241 22.1 241 21V3C241 1.9 241.9 1 243 1H275Z" fill="white"/>
<path d="M265.26 16.23C263.563 17.71 261.103 18.5 258.985 18.5C256.015 18.5 253.341 17.2 251.319 15.037C251.159 14.867 251.301 14.635 251.492 14.767C253.675 16.271 256.374 17.175 259.162 17.175C261.042 17.175 263.112 16.715 265.012 15.759C265.3 15.614 265.542 15.981 265.26 16.229V16.23ZM265.966 15.273C265.75 14.945 264.532 15.118 263.986 15.195C263.819 15.219 263.793 15.047 263.943 14.925C264.913 14.115 266.505 14.349 266.691 14.62C266.878 14.892 266.644 16.78 265.731 17.683C265.591 17.821 265.459 17.747 265.521 17.563C265.726 16.959 266.185 15.603 265.967 15.273H265.966Z" fill="#FF9900"/>
<path d="M261.814 15.291C261.24 14.793 261.138 14.561 260.821 14.086C259.874 15.098 259.203 15.401 257.971 15.401C256.518 15.401 255.384 14.463 255.384 12.583C255.384 11.116 256.146 10.116 257.228 9.62799C258.168 9.19499 259.478 9.11799 260.478 8.99999V8.76499C260.478 8.33499 260.511 7.82499 260.27 7.45499C260.058 7.12199 259.654 6.98499 259.3 6.98499C258.64 6.98499 258.05 7.33799 257.908 8.06999C257.878 8.23299 257.764 8.39299 257.608 8.39999L255.931 8.21299C255.791 8.17999 255.635 8.05999 255.674 7.83299C256.06 5.70799 257.897 5.06699 259.541 5.06699C260.381 5.06699 261.481 5.30099 262.145 5.96699C262.987 6.78699 262.907 7.88499 262.907 9.07699V11.895C262.907 12.742 263.242 13.115 263.557 13.571C263.67 13.735 263.695 13.931 263.554 14.053C263.201 14.361 262.574 14.933 262.228 15.253C262.171 15.3004 262.101 15.3295 262.027 15.3363C261.953 15.343 261.879 15.3273 261.814 15.291V15.291ZM260.155 12.758C260.495 12.132 260.478 11.544 260.478 10.84V10.448C259.228 10.448 257.908 10.728 257.908 12.268C257.908 13.05 258.294 13.578 258.958 13.578C259.445 13.578 259.88 13.266 260.155 12.758V12.758Z" fill="#221F1F"/>
</g>
<defs>
<linearGradient id="paint0_linear_23_87" x1="165.657" y1="12.275" x2="163.632" y2="9.10399" gradientUnits="userSpaceOnUse">
<stop stop-color="#F89F20"/>
<stop offset="0.25" stop-color="#F79A20"/>
<stop offset="0.533" stop-color="#F68D20"/>
<stop offset="0.62" stop-color="#F58720"/>
<stop offset="0.723" stop-color="#F48120"/>
<stop offset="1" stop-color="#F37521"/>
</linearGradient>
<linearGradient id="paint1_linear_23_87" x1="165.338" y1="12.232" x2="162.378" y2="6.44599" gradientUnits="userSpaceOnUse">
<stop stop-color="#F58720"/>
<stop offset="0.359" stop-color="#E16F27"/>
<stop offset="0.703" stop-color="#D4602C"/>
<stop offset="0.982" stop-color="#D05B2E"/>
</linearGradient>
<clipPath id="clip0_23_87">
<rect width="38" height="24" fill="white" transform="translate(48)"/>
</clipPath>
<clipPath id="clip1_23_87">
<rect width="38" height="24" fill="white"/>
</clipPath>
<clipPath id="clip2_23_87">
<rect width="38" height="24" fill="white" transform="translate(96)"/>
</clipPath>
<clipPath id="clip3_23_87">
<rect width="38" height="24" fill="white" transform="translate(144)"/>
</clipPath>
<clipPath id="clip4_23_87">
<rect width="38" height="24" fill="white" transform="translate(192)"/>
</clipPath>
<clipPath id="clip5_23_87">
<rect width="38" height="24" fill="white" transform="translate(240)"/>
</clipPath>
</defs>
</svg>
