<svg width="38" height="24" viewBox="0 0 38 24" fill="none" xmlns="http://www.w3.org/2000/svg">
<g clip-path="url(#clip0_22_76)">
<path opacity="0.07" d="M35 0H3C1.3 0 0 1.3 0 3V21C0 22.7 1.4 24 3 24H35C36.7 24 38 22.7 38 21V3C38 1.3 36.6 0 35 0Z" fill="black"/>
<path d="M35 1C36.1 1 37 1.9 37 3V21C37 22.1 36.1 23 35 23H3C1.9 23 1 22.1 1 21V3C1 1.9 1.9 1 3 1H35Z" fill="white"/>
<path d="M23.9 8.3C24.1 7.3 23.9 6.6 23.3 6C22.7 5.3 21.6 5 20.2 5H16.1C15.8 5 15.6 5.2 15.5 5.5L14 15.6C14 15.8 14.1 16 14.3 16H17L17.4 12.6L19.2 10.4L23.9 8.3V8.3Z" fill="#003087"/>
<path d="M23.9 8.3L23.7 8.5C23.2 11.3 21.5 12.3 19.1 12.3H18C17.7 12.3 17.5 12.5 17.4 12.8L16.8 16.7L16.6 17.7C16.6 17.9 16.7 18.1 16.9 18.1H19C19.3 18.1 19.5 17.9 19.5 17.7V17.6L19.9 15.2V15.1C19.9 14.9 20.2 14.7 20.4 14.7H20.7C22.8 14.7 24.4 13.9 24.8 11.5C25 10.5 24.9 9.7 24.4 9.1C24.3 8.6 24.1 8.4 23.9 8.3V8.3Z" fill="#3086C8"/>
<path d="M23.3 8.1C23.2 8 23.1 8 23 8C22.9 8 22.8 8 22.7 7.9C22.4 7.8 22 7.8 21.6 7.8H18.6C18.5 7.8 18.4 7.8 18.4 7.9C18.2 8 18.1 8.1 18.1 8.3L17.4 12.7V12.8C17.4 12.5 17.7 12.3 18 12.3H19.3C21.8 12.3 23.4 11.3 23.9 8.5V8.3C23.8 8.2 23.6 8.1 23.4 8.1H23.3V8.1Z" fill="#012169"/>
</g>
<defs>
<clipPath id="clip0_22_76">
<rect width="38" height="24" fill="white"/>
</clipPath>
</defs>
</svg>
