<svg width="22" height="22" viewBox="0 0 22 22" fill="none" xmlns="http://www.w3.org/2000/svg">
<path d="M16.9461 21.6578C16.7406 21.6572 16.5357 21.6347 16.335 21.5906C12.5135 20.8 8.99287 18.9465 6.17833 16.2433C3.42385 13.5342 1.51347 10.0849 0.678333 6.31278C0.579859 5.84266 0.604029 5.3551 0.748516 4.89703C0.893003 4.43895 1.15294 4.02576 1.50333 3.69722L3.94778 1.34445C4.07263 1.22637 4.22098 1.13595 4.38314 1.07909C4.54531 1.02223 4.71764 1.0002 4.88889 1.01445C5.06646 1.03297 5.23781 1.09017 5.3909 1.18202C5.54399 1.27388 5.67509 1.39815 5.775 1.54611L8.83055 6.06222C8.94514 6.23745 9.00045 6.44484 8.98835 6.65386C8.97625 6.86288 8.89737 7.0625 8.76333 7.22333L7.22944 9.05667C7.84034 10.4087 8.70549 11.6307 9.77778 12.6561C10.8431 13.7187 12.1023 14.5672 13.4872 15.1556L15.3878 13.6461C15.5474 13.52 15.7416 13.4454 15.9447 13.4323C16.1477 13.4192 16.3499 13.4682 16.5244 13.5728L21.1383 16.555C21.2967 16.6495 21.4316 16.7787 21.5329 16.9327C21.6342 17.0868 21.6994 17.2618 21.7235 17.4447C21.7476 17.6275 21.73 17.8134 21.6721 17.9885C21.6141 18.1635 21.5173 18.3232 21.3889 18.4556L19.0056 20.8144C18.7348 21.0838 18.4135 21.297 18.0601 21.4418C17.7066 21.5865 17.328 21.6599 16.9461 21.6578V21.6578ZM4.79111 2.22445L2.34667 4.57722C2.14955 4.76089 2.00364 4.99271 1.92328 5.24986C1.84292 5.50702 1.83087 5.78067 1.88833 6.04389C2.66488 9.58353 4.44994 12.8225 7.02778 15.3694C9.67645 17.9126 12.9895 19.656 16.5856 20.3989C16.8577 20.4558 17.1398 20.4443 17.4064 20.3653C17.6731 20.2864 17.916 20.1426 18.1133 19.9467L20.4967 17.5878L16.0417 14.7094L14.0006 16.335C13.9224 16.3968 13.8303 16.4386 13.7323 16.4567C13.6343 16.4749 13.5334 16.4687 13.4383 16.4389C11.7435 15.8145 10.2077 14.8232 8.94056 13.5361C7.62994 12.3122 6.6126 10.8081 5.96444 9.13611C5.93702 9.03489 5.93611 8.92832 5.9618 8.82664C5.98749 8.72496 6.0389 8.63161 6.11111 8.55556L7.76111 6.58167L4.79111 2.22445Z" fill="black"/>
</svg>
