<svg width="88" height="16" viewBox="0 0 88 16" fill="none" xmlns="http://www.w3.org/2000/svg">
<g clip-path="url(#clip0_11_9)">
<path d="M57.612 15.443C57.226 15.641 56.788 15.294 56.866 14.851L57.696 10.121L54.173 6.765C53.844 6.451 54.015 5.877 54.456 5.815L59.354 5.119L61.538 0.791996C61.735 0.401996 62.268 0.401996 62.465 0.791996L64.649 5.119L69.547 5.815C69.988 5.877 70.159 6.451 69.829 6.765L66.307 10.121L67.137 14.851C67.215 15.294 66.777 15.641 66.391 15.443L62 13.187L57.611 15.443H57.612Z" fill="black" fill-opacity="0.7"/>
</g>
<path d="M39.6107 15.443C39.2247 15.641 38.7867 15.294 38.8647 14.851L39.6947 10.121L36.1717 6.76501C35.8427 6.45101 36.0137 5.87701 36.4547 5.81501L41.3527 5.11901L43.5367 0.792012C43.7337 0.402012 44.2667 0.402012 44.4637 0.792012L46.6477 5.11901L51.5457 5.81501C51.9867 5.87701 52.1577 6.45101 51.8277 6.76501L48.3057 10.121L49.1357 14.851C49.2137 15.294 48.7757 15.641 48.3897 15.443L43.9987 13.187L39.6097 15.443H39.6107Z" fill="black" fill-opacity="0.7"/>
<path d="M21.6107 15.9435C21.2247 16.1415 20.7867 15.7945 20.8647 15.3515L21.6947 10.6215L18.1717 7.2655C17.8427 6.9515 18.0137 6.3775 18.4547 6.3155L23.3527 5.6195L25.5367 1.2925C25.7337 0.9025 26.2667 0.9025 26.4637 1.2925L28.6477 5.6195L33.5457 6.3155C33.9867 6.3775 34.1577 6.9515 33.8277 7.2655L30.3057 10.6215L31.1357 15.3515C31.2137 15.7945 30.7757 16.1415 30.3897 15.9435L25.9987 13.6875L21.6097 15.9435H21.6107Z" fill="black" fill-opacity="0.7"/>
<path d="M3.61065 15.9435C3.22465 16.1415 2.78665 15.7945 2.86465 15.3515L3.69465 10.6215L0.171653 7.2655C-0.157347 6.9515 0.0136534 6.3775 0.454653 6.3155L5.35265 5.6195L7.53665 1.2925C7.73365 0.9025 8.26665 0.9025 8.46365 1.2925L10.6477 5.6195L15.5457 6.3155C15.9867 6.3775 16.1577 6.9515 15.8277 7.2655L12.3057 10.6215L13.1357 15.3515C13.2137 15.7945 12.7757 16.1415 12.3897 15.9435L7.99865 13.6875L3.60965 15.9435H3.61065Z" fill="black" fill-opacity="0.7"/>
<g clip-path="url(#clip1_11_9)">
<path d="M77.354 5.119L79.538 0.792C79.5799 0.704954 79.6455 0.631433 79.7272 0.57981C79.8088 0.528186 79.9034 0.500533 80 0.5C80.183 0.5 80.366 0.597 80.465 0.792L82.649 5.119L87.547 5.815C87.6691 5.83419 87.7808 5.89491 87.8633 5.98691C87.9459 6.07891 87.9941 6.19655 88 6.32C88.007 6.40219 87.9953 6.48489 87.9659 6.56194C87.9364 6.63899 87.89 6.7084 87.83 6.765L84.307 10.121L85.137 14.851C85.215 15.294 84.777 15.641 84.391 15.443L80 13.187L75.611 15.443C75.5651 15.4668 75.5159 15.4837 75.465 15.493C75.123 15.553 74.797 15.239 74.865 14.851L75.695 10.121L72.173 6.765C72.1182 6.7132 72.0747 6.65069 72.0451 6.58137C72.0155 6.51204 72.0005 6.43737 72.001 6.362C72.0011 6.25544 72.0305 6.15095 72.086 6.06C72.1254 5.99407 72.1791 5.93783 72.2431 5.89542C72.3072 5.85302 72.3799 5.82553 72.456 5.815L77.354 5.119V5.119ZM80 12.027C80.0807 12.0267 80.1603 12.0459 80.232 12.083L83.918 13.977L83.224 10.02C83.2076 9.929 83.2138 9.83536 83.2421 9.74731C83.2703 9.65926 83.3197 9.57949 83.386 9.515L86.293 6.745L82.241 6.169C82.1571 6.15633 82.0775 6.12351 82.0091 6.07335C81.9406 6.02319 81.8854 5.95719 81.848 5.881L80.001 2.223L80 2.226V12.026V12.027Z" fill="black" fill-opacity="0.7"/>
</g>
<defs>
<clipPath id="clip0_11_9">
<rect width="16" height="16" fill="white" transform="translate(54)"/>
</clipPath>
<clipPath id="clip1_11_9">
<rect width="16" height="16" fill="white" transform="translate(72)"/>
</clipPath>
</defs>
</svg>
